<svg id="Layer_1" data-name="Layer 1" xmlns="http://www.w3.org/2000/svg" viewBox="0 0 1116.56 1118.94"><title>Compas</title><path d="M-987.23,1320.84c-14.53-1.22-28.83-2-43-3.7a426,426,0,0,1-97.63-23.65,433.89,433.89,0,0,1-76.13-37A434.8,434.8,0,0,1-1305,1171a432.09,432.09,0,0,1-74.17-120c-13.4-32.55-23.06-66.2-27.57-101.15-2.17-16.82-3.32-33.77-4.76-50.68-.22-2.58-.73-4.2-3.41-5.26-3.54-1.4-6.19-4-6.24-8.22,0-4.41,2.38-7.34,6.23-8.75,3-1.11,3.33-3.11,3.42-5.75a438.37,438.37,0,0,1,11.33-84.9,430.85,430.85,0,0,1,47.47-119,431.38,431.38,0,0,1,93.77-112.12A430.12,430.12,0,0,1-1100,469a441.44,441.44,0,0,1,109-17.53c3.14-.11,4.72-1.05,6.47-3.88a13.67,13.67,0,0,1,8-5.57c3.82-.84,7.14,1.71,8.43,5.57,1,3.11,2.85,3.79,5.86,3.9a432,432,0,0,1,130.84,24.72,432.65,432.65,0,0,1,119.91,65.51,438,438,0,0,1,77.1,76.52,432.61,432.61,0,0,1,57.47,97.23c17.63,41.12,28.11,84,32.81,128.44,1,9.26,1.15,18.61,1.53,27.93.11,2.91.68,4.9,3.8,6.12,3.53,1.38,6.08,4,6.07,8.31s-2.44,7-6,8.35c-3.29,1.3-3.79,3.49-3.89,6.56a425.79,425.79,0,0,1-30.81,146.56A431,431,0,0,1-638.09,1158a437.56,437.56,0,0,1-77.61,75.28,432.14,432.14,0,0,1-81.83,48.54,429.15,429.15,0,0,1-116.28,34.07c-16.43,2.38-33.13,2.88-49.69,4.44-1.74.16-4.22,1.23-4.89,2.59-2,4.11-4.69,7.2-9.35,7s-7.44-3.3-8.91-7.6C-986.85,1321.72-987.12,1321.13-987.23,1320.84Zm-239.63-207.12c-5.19-6.29-10.24-12.24-15.11-18.34a330,330,0,0,1-55.31-101.53c-8-23.67-13.57-48-15.63-72.93-.28-3.36-1.28-5.13-5.13-5.87-15-2.84-29.88-6.23-44.82-9.38-9.05-1.9-18.12-3.74-28-5.77,5.74,111.73,47.16,207,127.31,284.15,75.49,72.7,166.62,110.22,271.67,115.47-5.48-26.31-10.79-51.76-16.09-77.21-75.69-7.51-141.15-36.77-197.36-87.29-7.48,4.89-14.82,9.74-22.23,14.48-2.37,1.52-4.81,3.51-7.42,3.88-3,.43-7.27.33-8.94-1.46s-1.61-6.11-1-9.05,2.71-5.66,4.4-8.3C-1236,1127.58-1231.44,1120.69-1226.86,1113.72Zm663-242.08c-4.84-218.32-188.7-394.91-397.74-398.8a5.14,5.14,0,0,0-.14,1.44c4.88,23.24,10,46.43,14.52,69.73.92,4.75,3.12,5.8,7.14,6.21a325.4,325.4,0,0,1,58.12,11.4,333.75,333.75,0,0,1,130.47,72.81c2.17,2,3.82,2.21,6,.38a30.78,30.78,0,0,1,3.68-2.59c7.78-4.78,15.4-9.87,23.49-14,2.09-1.07,6.56-.06,8.36,1.66,1.61,1.53,1.82,5.51,1.24,8.1-.7,3.12-2.7,6-4.47,8.82-4.53,7.15-9.23,14.17-13.65,20.92,8.62,11.05,17.31,21.37,25.12,32.32a330.68,330.68,0,0,1,60.86,161.94c.28,2.81,1.19,3.89,4.05,4.47,15.31,3.08,30.55,6.49,45.83,9.71C-582,868-573.12,869.75-563.82,871.64Zm-826.31-1.46a7.39,7.39,0,0,0,1.87.1c24.07-5,48.15-9.91,72.17-15.1,1.27-.27,2.7-2.57,3-4.12.83-4.57.93-9.27,1.63-13.87,6-39.62,18.19-77.18,37.43-112.42a325.1,325.1,0,0,1,38.21-56c9.78-11.43,10-11,1.64-23.6a133.1,133.1,0,0,1-10.58-18.56c-2.62-5.82,1.9-11,8.14-9.53a34.09,34.09,0,0,1,9.81,4.62c7.45,4.67,14.73,9.62,22.16,14.52a338.93,338.93,0,0,1,91.76-59.76,336.09,336.09,0,0,1,105.73-27.1c5.46-25.86,10.81-51.17,16.16-76.53C-1201.85,475.62-1385.61,655.15-1390.13,870.18Zm427.23,428.66c214.65-3.27,395.61-186.56,398.88-397.38a8,8,0,0,0-1.88-.07c-23.91,4.93-47.82,9.84-71.68,15-1.3.28-2.86,2.46-3.12,4-2.23,12.75-3.61,25.67-6.34,38.31-12.27,56.77-38.09,106.81-76.36,150.37-3.72,4.24-3.48,6.86-.67,11,4.9,7.12,9.55,14.43,14,21.87,2.11,3.55,2.9,7.77-.39,11.14s-7.34,2.21-11.1.38a35,35,0,0,1-3.88-2.26c-6.81-4.48-13.64-8.93-20.38-13.52-2.13-1.46-3.62-2.08-6,0-6.85,6.05-13.84,12-21.1,17.52a326.1,326.1,0,0,1-118.5,57.57c-18,4.58-36.46,7.15-55.52,10.79C-952.15,1247.94-957.51,1273.34-962.9,1298.84Zm223.83-622.63c-30.67,46.8-60.85,92.86-91.37,139.45l168.8,35.51C-669.61,784.8-695.12,727-739.07,676.21Zm-475.76,419.37,91.31-139.52-168.71-35.51C-1284.37,987.07-1258.66,1044.77-1214.83,1095.58ZM-830.6,956.4l91.07,139.67c44-50.8,69.85-108.53,77.75-174.78Zm-111.63,244.53c66.81-7.77,124.52-33.58,175-77.26l-139.47-91.32C-918.6,1088.68-930.34,1144.47-942.23,1200.93Zm-69.46-630.1c-66.41,7.57-124.21,33.34-174.94,77.21l139.45,91.36C-1035.31,683-1023.58,627.28-1011.69,570.83Zm-.74,630-35.1-168.67-139.62,91C-1136.72,1167.05-1079.16,1192.89-1012.43,1200.85Zm-202-525.18c-43.92,50.55-69.78,108.33-77.76,174.77l168.82-35.15C-1154,768.34-1184,722.27-1214.39,675.67Zm447.69-27.15c-50.68-44-108.43-69.9-174.78-77.6l35.08,168.62ZM-995.13,878.94l-64.95-65.12c-5.21,1.86-10.36,4.35-15.8,5.52-26.47,5.74-53,11.13-79.53,16.64q-92.73,19.26-185.47,38.54c-5.61,1.17-11.19,2.45-16.79,3.68l.18.74ZM-984,903.88l-64.87,64.59c2.14,6.69,4.7,12.84,6,19.25,9.18,43.57,18.06,87.21,27.14,130.8q12.61,60.51,25.42,121c1.93,9.24,3.75,18.51,5.62,27.76l.64-.13ZM-959.83,879h360.09a8.85,8.85,0,0,0-3.6-1.64q-16.81-3.57-33.63-7.07-47.06-9.84-94.1-19.69c-38.51-8.09-77.06-16-115.48-24.49-16.06-3.56-33-4.17-47.5-13ZM-969,505.87l-.64-.14V867.34l64.56-64.45c-2-6-4.38-11.64-5.71-17.57-3.94-17.67-7.45-35.43-11.15-53.16q-15-72-30-143.92Q-960.51,547.06-969,505.87Zm-15,362.28V508.74c-5.2,21.49-9.66,43.06-14.2,64.61Q-1018,667.49-1038,761.58c-3,14-3.86,28.73-11.55,40.93ZM-958.69,893c0,.83-.07,1.06,0,1.13q31.36,31.51,62.85,62.92c.76.75,2.91.66,4.19.25,5-1.62,9.85-4.15,15-5.22,46.67-9.8,93.39-19.29,140.08-29,38.55-8,77.06-16.22,115.59-24.32,7.73-1.63,15.48-3.17,23.23-4.75l-.14-1Zm-11,369.69.47.06q4.26-20.12,8.52-40.23,9.39-44.64,18.75-89.28c7.68-36.41,15.14-72.87,23.22-109.19,4.14-18.67,5.29-38.17,14-54.71l-64.91-65.16Zm-383.18-369.79L-1353,894c2.74.5,5.5.92,8.22,1.49l110.69,23.3c46.95,9.89,93.93,19.66,140.85,29.72a255.43,255.43,0,0,1,29.15,8.14c3.44,1.17,5.27,1.53,8-1.22,18.25-18.49,36.71-36.78,55.08-55.16,2.14-2.14,4.14-4.42,6.87-7.35Zm467.5-91.16c2.06,1.27,2.81,2,3.69,2.22,12.3,2.82,24.59,5.64,36.94,8.2,1,.22,2.94-1.14,3.7-2.27q27.62-41.24,55-82.62c13.11-19.84,26-39.83,39-59.76,1.06-1.63,1.94-3.36,2.9-5l-.52-.23Zm-183.18,167.84c-2.53-1.15-3.94-2.09-5.49-2.44-11.49-2.64-23-5.25-34.55-7.57-1.24-.25-3.38,1.06-4.24,2.27-5.19,7.33-10.2,14.8-15.14,22.31q-39.51,60.08-78.93,120.2c-1.06,1.61-2,3.29-3,5ZM-756.35,1117c-44.15-44.56-90.6-91.43-137.45-138.69a42.23,42.23,0,0,0-2.4,5.94c-2.5,11-4.95,22-7.12,33.11-.25,1.29.94,3.51,2.13,4.33q19.38,13.23,39,26.1C-826,1071.47-789.78,1095.11-756.35,1117ZM-1060.6,793.71c1.08-2.06,2.09-3.29,2.41-4.68,2.68-11.82,5.3-23.66,7.72-35.53.19-1-1-2.62-2-3.31q-12.12-8.36-24.42-16.43-57.6-37.78-115.24-75.48c-2.67-1.74-5.41-3.38-8.12-5.06l.46-.24Zm1,185.22-1.87-.63-135.31,137.17c2.88-1.84,6.45-4.1,10-6.39,25.11-16.27,50.28-32.46,75.31-48.85,19.34-12.66,38.45-25.65,57.8-38.29,2.93-1.91,3-4.06,2.39-6.76q-2.68-12.4-5.46-24.8C-1057.6,986.54-1058.63,982.74-1059.58,978.93Zm302.69-322.54-.2-.32c-10.07,6.67-20.1,13.39-30.21,20Q-843.65,713-900.08,749.71c-2.41,1.57-3.41,2.9-2.68,5.94,2.1,8.71,3.71,17.53,5.67,26.27.83,3.71,2.06,7.33,3.1,11l2,.57Q-824.45,724.93-756.89,656.39Zm9.33,448.7c-11.53-17.67-24.05-36.91-36.63-56.1q-28.47-43.43-57-86.82c-1.35-2.06-2.48-2.85-5.19-2.21-10.18,2.4-20.47,4.32-30.69,6.56-2.34.52-4.55,1.64-7.73,2.81Zm-458.85-439.22c0,.23-.12.61,0,.82q24.23,37.15,48.5,74.27c14.87,22.66,29.86,45.23,44.69,67.91,1.69,2.59,3.28,3.45,6.45,2.71,9.21-2.17,18.53-3.84,27.76-5.89,3.1-.69,6.07-1.94,10.62-3.43Z" transform="translate(1535.2 -326.32)"/><path d="M-1500.25,907.63c1.45-7.71,2.83-15.44,4.37-23.13,2.63-13.19,5.36-26.37,8.07-39.55.86-4.15,3.39-6.32,7.7-6.33,16.23,0,16.12-1.34,18.87,14.48,3.15,18.1,6.61,36.14,10.18,55.49,2.21-12.62,4.15-24.05,6.24-35.46,1.55-8.5,3.26-17,5-25.45,1.58-7.76,3.28-9.11,11.09-9.11,12.35,0,12.34,0,9.31,11.89q-9.29,36.43-18.5,72.89c-2.08,8.24-4,9.79-12.35,9.79h-2.5c-10.21,0-11.26-1-13-10.84-3.24-18.16-6.58-36.3-9.88-54.45-.11-.59-.32-1.16-.55-2-4.2,19.49-8.27,38.64-12.47,57.76-1.89,8.59-3.2,9.53-11.71,9.53-13.56,0-13.51,0-16.67-13.28q-8.61-36.12-17.33-72.19c-1.87-7.75-.82-9.11,7.33-9,10.32.08,13.39-2.44,15.75,12.83,2.79,18.06,6.29,36,9.5,54,.13.73.35,1.44.52,2.17Z" transform="translate(1535.2 -326.32)"/><path d="M-996.39,353c0,19.55.12,38.7-.12,57.85,0,3-1.11,8.36-2.59,8.69-4.66,1-9.77.44-14.65-.11-.87-.1-2-3-2-4.59-.13-27.5-.09-55-.11-82.49,0-4,2.22-5.79,5.89-5.9,4.5-.15,9-.2,13.5,0,4.11.2,7,2.35,9,6.12,9.88,19,19.88,38,29.85,57a9.63,9.63,0,0,0,1.1,1.43c-.36-18.5-.73-36.9-1.06-55.31-.05-3.29-.77-7.77,3.31-8.44,4.69-.77,9.73.07,14.53.79.86.13,1.85,3.08,1.86,4.73.11,27.16.07,54.32.09,81.48,0,4.08-1.84,6.24-6,6.32-.17,0-.33,0-.5,0-16,.75-15.95.69-23.56-13.47-4.8-8.94-9.94-17.69-14.68-26.66S-991.67,362.38-996.39,353Z" transform="translate(1535.2 -326.32)"/><path d="M-478.63,885.81c0-13,0-26,0-39,0-6.6,1.61-8.19,8.3-8.22q21-.07,42,0c6.76,0,7.9,1.48,7.87,9.54,0,6.83-1.16,8-7.66,8.06-7.5,0-15,.08-22.48,0-4.32-.06-6.35,1.79-6.57,6.2-.62,12.85-.16,13.42,12.91,13.42,4.83,0,9.66-.06,14.48,0,5.68.08,7.11,1.52,7.23,7,0,1.33.05,2.66,0,4-.08,4.26-2.19,6.39-6.53,6.36-7.16-.06-14.32.07-21.48,0-4.64-.08-6.76,2-6.6,6.62.1,3,.08,6,0,9-.14,4.57,1.87,6.68,6.58,6.58,8.16-.16,16.32-.1,24.47,0,6.36,0,7.48,1.43,7.47,8.81s-1.22,8.93-7.38,9q-22.47.06-45,0c-5.89,0-7.62-1.76-7.65-7.85C-478.68,912.12-478.64,899-478.63,885.81Z" transform="translate(1535.2 -326.32)"/><path d="M-948.8,1352.88c-1.39,4.51-2.56,8.63-3.94,12.67-1.16,3.4-3.82,2.81-6.63,2.45-6-.79-12.12-1.71-18.17-1.65-4.25,0-8.25,2.13-9.21,7-1,5.21,2.27,8,6.5,9.94,6.51,3,13.19,5.55,19.58,8.72,14,7,19.32,21.58,12.84,35.82-4.36,9.56-12.8,14.07-22.63,16.2-11.18,2.42-22.16,1.11-33-2.31-4.4-1.39-6.05-4.23-4.72-8.8,1-3.48,1.74-7,2.44-9.9,7.47,1.58,14.52,3.59,21.71,4.39a25.2,25.2,0,0,0,12-2,8.45,8.45,0,0,0,1.26-15c-3.82-2.54-8.35-4-12.44-6.14-5.55-2.92-11.24-5.68-16.42-9.17-12.76-8.6-13.58-31.73,4.9-41.64C-979.93,1345.52-964.56,1347.25-948.8,1352.88Z" transform="translate(1535.2 -326.32)"/></svg>